<?xml version="1.0" encoding="utf-8"?>
<!-- Generator: Adobe Illustrator 19.0.0, SVG Export Plug-In . SVG Version: 6.00 Build 0)  -->
<svg version="1.1" xmlns="http://www.w3.org/2000/svg" xmlns:xlink="http://www.w3.org/1999/xlink" x="0px" y="0px"
	 viewBox="0 0 376.7 187.3" enable-background="new 0 0 376.7 187.3" xml:space="preserve">
<g id="Layer_1">
	<g id="XMLID_80_">
		<g id="XMLID_106_">
			<g id="XMLID_114_">
				<path id="XMLID_115_" fill="#FCFCFC" d="M32.8,28h20.8l26.7,74L91,130.2l9.7-28.2l26.5-74h20.6l35.8,137.9h-27
					c0,0-23.9-104.4-23.1-116.6h-0.8l-7.8,30.7L105,152H75L54.5,79.9l-6.8-30.7h-0.8C47.7,61.4,37,165.9,37,165.9H10L32.8,28z"/>
			</g>
			<g id="XMLID_111_">
				<path id="XMLID_112_" fill="#FCFCFC" d="M165.8,28c0,0,14.6-4.9,20-1.5s63.7-4.7,70.2-1.6s17.8,3.1,17.8,3.1l-51.6,137.9
					c0,0-5.9,6.6-12.5,0S165.8,28,165.8,28z"/>
			</g>
			<g id="XMLID_107_">
				<path id="XMLID_108_" fill="#FCFCFC" d="M291.7,28h22.1c30.5,0,41.5,10.3,41.5,40.6c0,29-23.9,42.7-54,42.7h-13l-17.8,54.6
					c0,0-28.8,3-27.8,0S291.7,28,291.7,28z M301.2,97c24.2,0,34.8-8.8,34.8-28.4c0-20,2.5-26.5-21.2-26.5h-5.4L293.2,97H301.2z"/>
			</g>
		</g>
	</g>
	<circle id="XMLID_1_" fill="#933535" stroke="#000000" stroke-miterlimit="10" cx="237" cy="49" r="11"/>
	<circle id="XMLID_2_" fill="#933535" stroke="#000000" stroke-miterlimit="10" cx="196" cy="65" r="11"/>
	<circle id="XMLID_3_" fill="#933535" stroke="#000000" stroke-miterlimit="10" cx="223" cy="95" r="11"/>
</g>
<g id="Layer_2">
</g>
</svg>
